<svg width="208" height="24" viewBox="0 0 208 24" fill="none" xmlns="http://www.w3.org/2000/svg">
<g clip-path="url(#clip0_233_2534)">
<path d="M155.15 6.09302H161.354C166.284 6.09302 169.708 9.26548 169.708 14.0572C169.708 18.849 166.284 22.0049 161.354 22.0049H155.15V6.09302ZM161.354 19.0142C164.464 19.0142 166.284 16.7505 166.284 14.0572C166.284 11.3639 164.58 9.0672 161.354 9.0672H158.492V19.0142H161.354Z" fill="#336CFA"/>
<path d="M171.279 16.2217C171.279 12.9501 173.546 10.1907 177.301 10.1907C181.056 10.1907 183.339 12.9501 183.339 16.2217C183.339 19.4933 181.073 22.2857 177.301 22.2857C173.529 22.2857 171.279 19.5263 171.279 16.2217ZM180.229 16.2217C180.229 14.4371 179.17 12.884 177.301 12.884C175.432 12.884 174.406 14.4371 174.406 16.2217C174.406 18.0062 175.448 19.5759 177.301 19.5759C179.154 19.5759 180.229 18.0227 180.229 16.2217Z" fill="#336CFA"/>
<path d="M190.85 10.1907C193.182 10.1907 194.605 11.2151 195.349 12.2726L193.397 14.1397C192.851 13.3301 192.024 12.9005 190.998 12.9005C189.179 12.9005 187.905 14.2389 187.905 16.2382C187.905 18.2375 189.179 19.5924 190.998 19.5924C192.041 19.5924 192.868 19.1132 193.397 18.3532L195.349 20.1872C194.588 21.2612 193.182 22.2857 190.85 22.2857C187.343 22.2857 184.812 19.7742 184.812 16.2217C184.812 12.6692 187.343 10.1907 190.85 10.1907Z" fill="#336CFA"/>
<path d="M197.615 18.3697C198.442 19.1628 200.146 19.9394 201.552 19.9394C202.842 19.9394 203.471 19.4933 203.471 18.7662C203.471 17.9566 202.478 17.6757 201.188 17.4113C199.236 17.0313 196.705 16.5521 196.705 13.8093C196.705 11.876 198.376 10.1907 201.37 10.1907C203.305 10.1907 204.844 10.8516 205.969 11.7604L204.761 13.8258C204.083 13.0822 202.776 12.4874 201.386 12.4874C200.294 12.4874 199.6 12.9005 199.6 13.5614C199.6 14.2719 200.493 14.5363 201.767 14.8007C203.719 15.1807 206.349 15.7094 206.349 18.568C206.349 20.6664 204.579 22.2692 201.419 22.2692C199.434 22.2692 197.532 21.6082 196.324 20.4846L197.615 18.3697Z" fill="#336CFA"/>
<path d="M24.1995 1.71436H35.68L40.1796 7.82795L47.7726 1.71436H55.4152L43.455 11.0169L51.412 21.5092H39.8157L35.3327 15.2469L27.5577 21.5257H19.915L31.9745 11.4961L24.1995 1.71436Z" fill="#121212"/>
<path d="M55.9451 8.20801H62.1982L58.5257 21.5257H52.2561L55.9451 8.20801Z" fill="#121212"/>
<path d="M74.737 15.9079L81.0397 8.22461H88.2522L84.5798 21.5258H78.0621L80.196 13.8425L73.7941 21.5423H70.5187L67.8884 13.8425L65.8041 21.5258H62.3467L66.0191 8.22461H72.1398L74.737 15.9079Z" fill="#121212"/>
<path d="M123.604 8.20801H117.599L107.426 21.5423H111.727L113.795 18.7003H119.766L120.428 21.5423H126.814L123.621 8.20801H123.604ZM119.27 15.6435H115.929L118.559 12.0579L119.27 15.6435Z" fill="#121212"/>
<path d="M126.912 8.20801L133.463 8.22453L137.168 13.4789L143.074 8.20801H147.292L138.045 16.6183L136.656 21.5257H130.882L132.421 15.9409L126.912 8.20801Z" fill="#121212"/>
<path d="M20.7261 8.22461H5.70549L1.71875 21.5258L18.6417 21.5423L19.4523 18.5186L9.24559 18.5021L10.0893 15.4783L17.2852 15.4948L17.9966 12.9007L10.784 12.9172L11.3299 10.9509H19.9982L20.7261 8.22461Z" fill="#121212"/>
<path d="M88.1699 21.5423L91.8258 8.24105L101.586 8.20801C106.615 8.20801 108.831 9.28202 108.236 11.4466C107.806 12.9997 106.019 13.9911 102.876 14.4373C106.416 14.8669 107.922 16.04 107.392 17.9567C106.747 20.3195 103.968 21.4927 99.0383 21.5092L88.1864 21.5423H88.1699ZM94.8365 19.6256H96.6562C99.0383 19.6256 100.461 19.576 100.908 17.9237C101.42 16.04 100.461 15.8913 97.9961 15.8913H95.9283L94.8199 19.6256H94.8365ZM96.4246 14.0077H98.5586C100.378 14.0077 101.503 13.1815 101.95 11.5622C102.363 10.0586 101.602 10.1082 99.6834 10.1082H97.4998L96.4246 14.0077Z" fill="#121212"/>
</g>
<defs>
<clipPath id="clip0_233_2534">
<rect width="204.631" height="20.5714" fill="white" transform="translate(1.71875 1.71436)"/>
</clipPath>
</defs>
</svg>
